<svg xmlns="http://www.w3.org/2000/svg" viewBox="0 0 158.7 37.2"><g fill="#26A9E0"><path d="M11.7 26.2c.6.8 1.4 1.5 2.2 2.1 2 1.5 4.5 2.4 7.2 2.4s5.2-.9 7.2-2.4c.8-.6 1.5-1.3 2.2-2.1-.6-.8-1.4-1.5-2.2-2.1-2-1.5-4.5-2.4-7.2-2.4s-5.2.9-7.2 2.4c-.9.6-1.6 1.3-2.2 2.1z"/><circle cx="21.1" cy="14.1" r="4.5"/><path d="M21 .6c-3.5 0-6.9 1-9.9 2.9L12.8 6c2.4-1.6 5.3-2.4 8.2-2.4 8.3 0 15.1 6.8 15.1 15.1S29.3 33.8 21 33.8 6 26.9 6 18.6c0-.9 0-1.8.2-2.6l2.4 1.2V7.7L1 13.3l2.4 1.2c-.3 1.4-.4 2.7-.4 4.1 0 10 8.1 18.1 18.1 18.1s18.1-8.1 18.1-18.1S31 .6 21 .6z"/></g><g fill="#231F20"><path d="M65.2 17.4c-3.3 0-5.9 2.7-5.9 5.9 0 3.3 2.7 5.9 5.9 5.9s5.9-2.7 5.9-5.9c.1-3.2-2.6-5.9-5.9-5.9zm3 6.2c0 .1 0 .2-.1.4-.1.3-.2.5-.3.7v.1c-.1.1-.1.2-.2.3-.5.7-1.4 1.2-2.3 1.2-1.6 0-3-1.3-3-3 0-1.6 1.3-3 3-3 1 0 1.8.5 2.3 1.2.1.1.2.2.2.3v.1c.1.2.2.5.3.7 0 .1.1.2.1.4v.6zM46.5 15.9c0-2.6 2.1-4.9 5.5-4.9 2.2 0 4 .7 5 1.9l-1.7 2.3c-.9-.8-1.7-1.3-3.1-1.3-1.5 0-2.5.8-2.5 1.9 0 3.6 8 2.5 8 8.4 0 3-2.6 5-5.9 5-2.3 0-4.9-1-5.8-2.8l1.8-2.1c1 1.3 2.7 2 4 2 1.5 0 2.6-.7 2.6-2.1.1-3.4-7.9-2.5-7.9-8.3zM73.6 14.6h2.9v14.3h-2.9V14.6zM91.8 17.6h2.9v1.1c.5-.7 1.2-1.3 2.6-1.3.9 0 1.4.2 1.8.4l-1 2.7c-.6-.3-.9-.4-1.5-.4-1 0-1.5.6-1.9 1.2V29h-2.9V17.6zM108.2 15.9c0-2.6 2.1-4.9 5.5-4.9 2.2 0 4 .7 5 1.9l-1.7 2.3c-.9-.8-1.7-1.3-3.1-1.3-1.5 0-2.5.8-2.5 1.9 0 3.6 8 2.5 8 8.4 0 3-2.6 5-5.9 5-2.3 0-4.9-1-5.8-2.8l1.8-2.1c1 1.3 2.7 2 4 2 1.5 0 2.6-.7 2.6-2.1 0-3.4-7.9-2.5-7.9-8.3zM121.7 14.5h2.9v3.1h3.6v2.7h-3.6v4.1c0 1.2.4 2 1.4 2 .8 0 1.3-.4 1.7-.7l.9 2.2c-.7.6-1.9 1.1-3.3 1.1-2.6 0-3.5-1.7-3.5-4.6v-9.9zM131.5 18.4c1-.6 2.5-1.1 4-1.1 3.3 0 4.5 1.7 4.5 4.7v7h-2.5v-1.3c-.6.9-1.8 1.5-3.3 1.5-2.1 0-3.5-1.3-3.5-3.5 0-2.5 1.8-3.7 4.1-3.7 1 0 2 .3 2.6.7.1-1.9-.4-2.9-2.1-2.9-1.3 0-2.1.4-3 .8l-.8-2.2zm5.8 7.2v-1.2c-.5-.4-1.2-.6-2-.6-1 0-1.8.5-1.8 1.4 0 .9.7 1.3 1.6 1.3 1.2.2 1.8-.4 2.2-.9zM80 18.4c1-.6 2.5-1.1 4-1.1 3.3 0 4.5 1.7 4.5 4.7v7H86v-1.3c-.6.9-1.8 1.5-3.3 1.5-2.1 0-3.5-1.3-3.5-3.5 0-2.5 1.8-3.7 4.1-3.7 1 0 2 .3 2.6.7.1-1.9-.4-2.9-2.1-2.9-1.3 0-2.1.4-3 .8l-.8-2.2zm5.8 7.2v-1.2c-.5-.4-1.2-.6-2-.6-1 0-1.8.5-1.8 1.4 0 .9.7 1.3 1.6 1.3 1.2.2 1.9-.4 2.2-.9zM145.5 28.9v-5.8h3.1v-2.7h-3.1v-.9c0-1.6.7-2.2 1.7-2.2.7 0 1.3.2 1.7.6l1-2.2c-.6-.6-1.8-1.1-3.2-1.1-2.5 0-4 1.6-4 4.7V29h2.8zM153.7 28.9v-5.8h3.1v-2.7h-3.1v-.9c0-1.6.7-2.2 1.7-2.2.7 0 1.3.2 1.7.6l1-2.2c-.6-.6-1.8-1.1-3.2-1.1-2.5 0-4 1.6-4 4.7V29h2.8z"/></g></svg>