<svg id="Layer_1" data-name="Layer 1" xmlns="http://www.w3.org/2000/svg" viewBox="0 0 784.58 150.27"><defs><style>.cls-1,.cls-4,.cls-5{fill:#20a1db}.cls-2{fill:none}.cls-2,.cls-4,.cls-5{stroke:#20a1db;stroke-miterlimit:10}.cls-3{font-size:14px}.cls-3,.cls-6{fill:#5f5e5e;font-family:Circe}.cls-4{stroke-dasharray:6}.cls-6{font-size:12px}.cls-7{fill:#27aae1}.cls-8{fill:#231f20}</style></defs><title>графическая схема работы</title><circle class="cls-1" cx="14.13" cy="68.66" r="6.13"/><circle class="cls-2" cx="13.88" cy="68.66" r="13.38"/><text class="cls-3" transform="translate(6 103.78)">Вы</text><path class="cls-4" d="M64.68 69.32h241.76"/><path class="cls-5" d="M316.59 69.65l-3.51 3.84-.12-7.57 3.63 3.73z"/><text class="cls-6" transform="translate(172 91.2)">Д<tspan x="8.74" y="0">еньги</tspan></text><text class="cls-6" transform="translate(171.83 55.2)">Задачи</text><path class="cls-7" d="M407.68 295.13a7.84 7.84 0 0 0 1.4 1.36 7.75 7.75 0 0 0 9.32 0 7.84 7.84 0 0 0 1.4-1.36 7.84 7.84 0 0 0-1.4-1.36 7.76 7.76 0 0 0-9.32 0 7.84 7.84 0 0 0-1.4 1.36z" transform="translate(-32.5 -228.47)"/><circle class="cls-7" cx="381.2" cy="58.88" r="2.92"/><path class="cls-7" d="M413.7 278.59a11.63 11.63 0 0 0-6.36 1.89l1.06 1.63a9.73 9.73 0 1 1-4.42 8.15 9.8 9.8 0 0 1 .15-1.73l1.56.78v-6.15l-4.92 3.69 1.56.78a11.67 11.67 0 1 0 11.37-9.04z" transform="translate(-32.5 -228.47)"/><path class="cls-8" d="M389.83 311.93a3.84 3.84 0 1 0 3.84 3.84 3.84 3.84 0 0 0-3.84-3.84zm1.91 4a2 2 0 0 1-.22.72 1.91 1.91 0 1 1 0-1.9 2 2 0 0 1 .22.72 1.94 1.94 0 0 1 0 .53zM377.76 311a3.22 3.22 0 0 1 3.54-3.14 4.37 4.37 0 0 1 3.25 1.22l-1.07 1.49a2.63 2.63 0 0 0-2-.84 1.35 1.35 0 0 0-1.59 1.25c0 2.36 5.15 1.61 5.15 5.39 0 1.92-1.67 3.22-3.8 3.22-1.46 0-3.17-.63-3.72-1.79l1.14-1.36a3.42 3.42 0 0 0 2.62 1.28 1.43 1.43 0 0 0 1.66-1.33c-.03-2.26-5.18-1.71-5.18-5.39zM395.26 310.12h1.87v9.26h-1.87v-9.28zM407 312.08h1.87v.71a1.87 1.87 0 0 1 1.67-.84 1.76 1.76 0 0 1 1.14.28L411 314a1.56 1.56 0 0 0-.94-.28 1.26 1.26 0 0 0-1.2.78v4.91H407v-7.31zM417.56 311a3.22 3.22 0 0 1 3.54-3.14 4.37 4.37 0 0 1 3.25 1.22l-1.07 1.49a2.63 2.63 0 0 0-2-.84 1.35 1.35 0 0 0-1.59 1.25c0 2.36 5.15 1.61 5.15 5.39 0 1.92-1.67 3.22-3.8 3.22-1.46 0-3.17-.63-3.72-1.79l1.14-1.36a3.42 3.42 0 0 0 2.62 1.28 1.43 1.43 0 0 0 1.66-1.33c-.03-2.26-5.18-1.71-5.18-5.39zM426.28 310h1.87v2h2.36v1.75h-2.36v2.66c0 .8.26 1.32.88 1.32a1.82 1.82 0 0 0 1.12-.42l.57 1.45a3.51 3.51 0 0 1-2.16.71c-1.66 0-2.27-1.07-2.27-2.94V310zM432.61 312.6a5.42 5.42 0 0 1 2.58-.7c2.16 0 2.92 1.1 2.92 3v4.45h-1.62v-.84a2.6 2.6 0 0 1-2.16.94 2.13 2.13 0 0 1-2.29-2.24c0-1.61 1.19-2.37 2.66-2.37a3 3 0 0 1 1.66.47c0-1.22-.28-1.88-1.36-1.88a4.2 4.2 0 0 0-1.92.5zm3.75 4.65v-.75a2.07 2.07 0 0 0-1.28-.36 1 1 0 0 0-1.17.91.91.91 0 0 0 1 .86 1.6 1.6 0 0 0 1.45-.66zM399.38 312.6a5.42 5.42 0 0 1 2.58-.7c2.16 0 2.92 1.1 2.92 3v4.45h-1.62v-.84a2.6 2.6 0 0 1-2.16.94 2.13 2.13 0 0 1-2.29-2.24c0-1.61 1.19-2.37 2.66-2.37a3 3 0 0 1 1.66.47c0-1.22-.28-1.88-1.36-1.88a4.2 4.2 0 0 0-1.92.5zm3.75 4.65v-.75a2.07 2.07 0 0 0-1.28-.36 1 1 0 0 0-1.17.91.91.91 0 0 0 1 .86 1.6 1.6 0 0 0 1.45-.66zM441.69 319.37v-3.77h2v-1.75h-2v-.58c0-1 .44-1.45 1.07-1.45a1.53 1.53 0 0 1 1.07.36l.63-1.43a3 3 0 0 0-2-.68c-1.62 0-2.6 1-2.6 3.05v6.26h1.87zM447 319.37v-3.77h2v-1.75h-2v-.58c0-1 .44-1.45 1.07-1.45a1.53 1.53 0 0 1 1.07.36l.63-1.43a3 3 0 0 0-2-.68c-1.62 0-2.6 1-2.6 3.05v6.26H447z" transform="translate(-32.5 -228.47)"/><path class="cls-2" d="M346.18 258.75s-6.5-10.75-22-10.75h-101.5" transform="translate(-32.5 -228.47)"/><path class="cls-2" d="M99.68 258.75s6.5-10.75 22-10.75h101.5" transform="translate(-32.5 -228.47)"/><path class="cls-5" d="M63.71 36.39l5.12-.91-6.33-4.15 1.21 5.06z"/><path class="cls-2" d="M348.18 335.1s-6.5 10.75-22 10.75h-101.5" transform="translate(-32.5 -228.47)"/><path class="cls-2" d="M101.68 335.1s6.5 10.75 22 10.75h101.5" transform="translate(-32.5 -228.47)"/><path class="cls-5" d="M64.71 100.53l5.12.91-6.33 4.15 1.21-5.06z"/><text class="cls-6" transform="translate(140.5 10.2)">Р<tspan x="6.49" y="0">ез</tspan><tspan x="18.28" y="0">у</tspan><tspan x="23.78" y="0">л</tspan><tspan x="30.17" y="0">ь</tspan><tspan x="35.14" y="0">таты раб</tspan><tspan x="80.43" y="0">о</tspan><tspan x="87" y="0">т</tspan></text><text class="cls-6" transform="translate(130 136.2)">Отч<tspan x="20.83" y="0">е</tspan><tspan x="26.96" y="0">тные до</tspan><tspan x="68.79" y="0">к</tspan><tspan x="74.66" y="0">ументы</tspan></text><path class="cls-4" d="M444.68 69.32h241.76"/><path class="cls-5" d="M696.59 69.65l-3.51 3.84-.12-7.57 3.63 3.73z"/><path class="cls-2" d="M726.18 257.75s-6.5-10.75-22-10.75h-101.5" transform="translate(-32.5 -228.47)"/><path class="cls-2" d="M479.68 257.75s6.5-10.75 22-10.75h101.5" transform="translate(-32.5 -228.47)"/><path class="cls-5" d="M443.71 34.39l5.12-.91-6.33-4.15 1.21 5.06z"/><text class="cls-6" transform="translate(522.5 10.2)">Р<tspan x="6.49" y="0">ез</tspan><tspan x="18.28" y="0">у</tspan><tspan x="23.78" y="0">л</tspan><tspan x="30.17" y="0">ь</tspan><tspan x="35.14" y="0">таты раб</tspan><tspan x="80.43" y="0">о</tspan><tspan x="87" y="0">т</tspan></text><text class="cls-6" transform="translate(523.5 91.2)">Р<tspan x="6.66" y="0">а</tspan><tspan x="12.18" y="0">с</tspan><tspan x="17.89" y="0">ч</tspan><tspan x="23.68" y="0">е</tspan><tspan x="29.81" y="0">т за раб</tspan><tspan x="70.37" y="0">о</tspan><tspan x="76.93" y="0">ты</tspan></text><text class="cls-6" transform="translate(512.5 55.2)">К<tspan x="7.3" y="0">онтракты на раб</tspan><tspan x="93.56" y="0">о</tspan><tspan x="100.13" y="0">ты</tspan></text><text class="cls-3" transform="translate(705 144.78)">Фрилан<tspan x="49.03" y="0">с</tspan><tspan x="55.52" y="0">еры</tspan></text><circle class="cls-1" cx="747.13" cy="32.66" r="6.13"/><circle class="cls-2" cx="746.88" cy="32.66" r="13.38"/><circle class="cls-1" cx="747.13" cy="68.66" r="6.13"/><circle class="cls-2" cx="746.88" cy="68.66" r="13.38"/><circle class="cls-1" cx="747.13" cy="105.66" r="6.13"/><circle class="cls-2" cx="746.88" cy="105.66" r="13.38"/></svg>